<svg width="24" height="24" viewBox="0 0 32 32" fill="none" xmlns="http://www.w3.org/2000/svg">
<path fill-rule="evenodd" clip-rule="evenodd" d="M6.6665 5.33341C5.93013 5.33341 5.33317 5.93037 5.33317 6.66675C5.33317 7.40312 5.93013 8.00008 6.6665 8.00008H25.3332C27.5424 8.00008 29.3332 9.79095 29.3332 12.0001V25.3334C29.3332 27.5426 27.5424 29.3334 25.3332 29.3334H6.6665C4.45737 29.3334 2.6665 27.5426 2.6665 25.3334V6.66675C2.6665 4.45761 4.45737 2.66675 6.6665 2.66675H22.6665C23.4029 2.66675 23.9998 3.26371 23.9998 4.00008C23.9998 4.73645 23.4029 5.33341 22.6665 5.33341H6.6665ZM21.9998 16.6667C20.8953 16.6667 19.9998 17.5622 19.9998 18.6667C19.9998 19.7713 20.8953 20.6667 21.9998 20.6667C23.1044 20.6667 23.9998 19.7713 23.9998 18.6667C23.9998 17.5622 23.1044 16.6667 21.9998 16.6667Z" fill="#4D5AC3"/>
</svg>
